<mxfile host="app.diagrams.net" modified="2022-02-20T18:46:07.627Z" agent="5.0 (Macintosh; Intel Mac OS X 10_15_7) AppleWebKit/537.36 (KHTML, like Gecko) Chrome/98.0.4758.102 Safari/537.36" etag="HRdXhw5qG3t_4gyZeP92" version="16.6.1" type="github">
  <diagram id="61VbCcZXCev8YtqBl3p2" name="Page-1">
    <mxGraphModel dx="946" dy="508" grid="1" gridSize="10" guides="1" tooltips="1" connect="1" arrows="1" fold="1" page="1" pageScale="1" pageWidth="827" pageHeight="1169" math="0" shadow="0">
      <root>
        <mxCell id="0" />
        <mxCell id="1" parent="0" />
        <mxCell id="in9KSEjNZDJkRzWnUhDc-1" value="" style="rounded=0;whiteSpace=wrap;html=1;" vertex="1" parent="1">
          <mxGeometry x="80" y="60" width="630" height="380" as="geometry" />
        </mxCell>
        <mxCell id="in9KSEjNZDJkRzWnUhDc-2" value="Menu di amministrazione" style="rounded=0;whiteSpace=wrap;html=1;" vertex="1" parent="1">
          <mxGeometry x="100" y="80" width="160" height="340" as="geometry" />
        </mxCell>
        <mxCell id="in9KSEjNZDJkRzWnUhDc-3" value="Contenuto di amministazione" style="rounded=0;whiteSpace=wrap;html=1;" vertex="1" parent="1">
          <mxGeometry x="280" y="130" width="410" height="290" as="geometry" />
        </mxCell>
        <mxCell id="in9KSEjNZDJkRzWnUhDc-4" value="Informazioni account - sezione attuale in fase di gestione" style="rounded=0;whiteSpace=wrap;html=1;" vertex="1" parent="1">
          <mxGeometry x="280" y="80" width="410" height="50" as="geometry" />
        </mxCell>
      </root>
    </mxGraphModel>
  </diagram>
</mxfile>
